<mxfile host="app.diagrams.net" modified="2023-07-08T17:55:33.586Z" agent="Mozilla/5.0 (Windows NT 10.0; Win64; x64) AppleWebKit/537.36 (KHTML, like Gecko) Chrome/114.0.0.0 Safari/537.36" version="21.6.1" etag="eh7J6NvbFKiRuP2fsZ5J" type="github">
  <diagram name="Strona-1" id="gErWXWD95Lkqc7_FX6kD">
    <mxGraphModel>
      <root>
        <mxCell id="0" />
        <mxCell id="1" parent="0" />
      </root>
    </mxGraphModel>
  </diagram>
</mxfile>
